<?xml version="1.0" encoding="UTF-8" standalone="no"?>
<!-- Created with Inkscape (http://www.inkscape.org/) -->
<svg xmlns:dc="http://purl.org/dc/elements/1.1/" xmlns:cc="http://creativecommons.org/ns#" xmlns:rdf="http://www.w3.org/1999/02/22-rdf-syntax-ns#" xmlns:svg="http://www.w3.org/2000/svg" xmlns="http://www.w3.org/2000/svg" xmlns:sodipodi="http://sodipodi.sourceforge.net/DTD/sodipodi-0.dtd" xmlns:inkscape="http://www.inkscape.org/namespaces/inkscape" width="210mm" height="297mm" id="svg2" version="1.1" inkscape:version="0.48.4 r9939" sodipodi:docname="phpugka.svg">
  <defs id="defs4"/>
  <sodipodi:namedview id="base" pagecolor="#ffffff" bordercolor="#666666" borderopacity="1.0" inkscape:pageopacity="0.0" inkscape:pageshadow="2" inkscape:zoom="0.7" inkscape:cx="362.6512" inkscape:cy="662.93433" inkscape:document-units="px" inkscape:current-layer="layer1" showgrid="false" inkscape:window-width="1351" inkscape:window-height="757" inkscape:window-x="2405" inkscape:window-y="120" inkscape:window-maximized="0"/>
  <metadata id="metadata7">
    <rdf:RDF>
      <cc:Work rdf:about="">
        <dc:format>image/svg+xml</dc:format>
        <dc:type rdf:resource="http://purl.org/dc/dcmitype/StillImage"/>
        <dc:title/>
      </cc:Work>
    </rdf:RDF>
  </metadata>
  <g inkscape:label="Ebene 1" inkscape:groupmode="layer" id="layer1">
    <g id="g3050" transform="matrix(0.82796072,0,0,0.82796072,134.34632,-215.54313)">
      <path style="fill:#a9acb0" d="m 341.04318,1023.8148 c 0,-0.502 0.0702,-0.9127 0.15611,-0.9127 0.0858,0 10.55876,-2.7532 23.27313,-6.1182 23.21603,-6.1445 25.87338,-6.8435 43.80427,-11.5223 5.35434,-1.3971 14.8005,-3.9003 20.99145,-5.56257 6.19096,-1.6623 15.91092,-4.22618 21.59991,-5.6975 5.68899,-1.47133 18.14696,-4.75918 27.68438,-7.30633 9.53743,-2.54715 22.1323,-5.86705 27.98861,-7.37755 5.85631,-1.5105 13.65966,-3.56723 17.34077,-4.57052 3.68111,-1.00328 10.38925,-2.78055 14.90698,-3.94949 4.51772,-1.16893 16.9757,-4.45809 27.68438,-7.30923 10.70869,-2.85115 23.16666,-6.12603 27.68439,-7.2775 4.51772,-1.15148 10.13066,-2.63444 12.47318,-3.29547 3.41967,-0.96498 27.14749,-7.23447 74.65615,-19.72602 1.57259,-0.41349 3.08751,-0.59016 3.36642,-0.39259 0.87677,0.621 2.61054,3.5266 18.54884,31.08583 1.83855,3.17914 9.71801,16.73232 17.50979,30.11817 15.37372,26.41107 16.93743,29.42147 15.69261,30.21127 -0.43054,0.2732 -89.563,0.5009 -198.0721,0.506 -174.96675,0.01 -197.28927,-0.094 -197.28927,-0.9033 z" id="path3375" inkscape:connector-curvature="0"/>
      <path style="fill:#a9acb0" d="m 17.957287,1022.8533 c 0,-0.729 358.726193,-616.14014 359.892263,-617.41157 0.58775,-0.64085 1.21895,0.0192 3.20002,3.34646 2.10532,3.5359 41.98097,72.40653 59.47037,102.71337 3.08988,5.35434 22.65839,39.16229 43.48558,75.12878 28.79704,49.72963 37.72752,65.61572 37.28273,66.32084 -4.08429,6.47485 -74.81908,116.96359 -75.62481,118.12703 -0.60741,0.87708 -5.45552,8.40662 -10.77356,16.73232 -19.54519,30.59908 -144.60429,225.82057 -147.77413,230.68037 l -3.27411,5.0197 -132.94218,0 c -94.806101,0 -132.942173,-0.1886 -132.942173,-0.6573 z" id="path3373" inkscape:connector-curvature="0"/>
      <path style="fill:#a9acb0" d="m 332.53474,1009.0599 c 0.008,-0.3916 4.42513,-3.6813 12.76758,-9.50977 2.40509,-1.6803 7.10497,-4.99579 16.42809,-11.58905 3.51379,-2.48493 7.89462,-5.56498 9.73517,-6.84457 1.84056,-1.27959 7.86419,-5.5387 13.38586,-9.46468 5.52167,-3.92598 10.8608,-7.71032 11.86474,-8.40966 1.00394,-0.69933 5.24786,-3.7084 9.43094,-6.68682 13.54571,-9.64474 36.18948,-25.67611 44.90994,-31.7954 10.93696,-7.67464 14.39587,-10.11126 19.28133,-13.5827 2.67717,-1.9023 9.52221,-6.74498 15.2112,-10.76151 5.68898,-4.01653 11.57572,-8.20819 13.08163,-9.3148 1.50591,-1.1066 9.17235,-6.52343 17.03654,-12.0374 7.86419,-5.51398 14.98304,-10.54524 15.81965,-11.18059 0.83662,-0.63536 5.21744,-3.75385 9.73517,-6.92999 9.97923,-7.01579 37.08314,-26.14389 42.72579,-30.15297 2.24914,-1.59801 6.35617,-4.49562 9.12672,-6.43914 2.77056,-1.94352 8.30608,-5.85083 12.30116,-8.68291 3.99508,-2.83209 7.5545,-5.05338 7.90982,-4.93622 0.35533,0.11717 2.45308,3.33998 4.66174,7.1618 2.20861,3.82182 6.74331,11.60339 10.07706,17.29238 3.33381,5.68899 9.43484,16.23035 13.55792,23.42525 4.12309,7.1949 8.1066,14.03994 8.85231,15.2112 4.95691,7.78552 15.43195,26.89987 15.14768,27.64067 -0.31536,0.82186 0.0256,0.69715 -16.05645,5.86939 -6.52561,2.09871 -16.24557,5.24053 -21.59991,6.98184 -5.35434,1.7413 -16.30641,5.28064 -24.33792,7.86521 -8.03151,2.58456 -18.16217,5.86881 -22.51258,7.29832 -4.3504,1.42952 -13.65965,4.44858 -20.68723,6.70904 -7.02757,2.26045 -16.74753,5.42333 -21.5999,7.02859 -10.49453,3.47182 -48.02081,15.63696 -55.36877,17.94926 -2.8445,0.89512 -8.73123,2.81016 -13.08163,4.25564 -4.35041,1.44548 -14.89177,4.86022 -23.42525,7.58831 -8.53349,2.72809 -17.84274,5.74422 -20.68724,6.70252 -2.84449,0.95828 -11.33234,3.7059 -18.86188,6.1058 -7.52955,2.3999 -18.07091,5.81374 -23.42525,7.5863 -5.35435,1.77256 -16.71711,5.45782 -25.2506,8.18946 -8.53348,2.7317 -17.53163,5.6297 -19.99589,6.4401 -4.67454,1.5373 -6.17408,1.785 -6.15754,1.0171 z" id="path3371" inkscape:connector-curvature="0"/>
      <path style="fill:#a9acb0" d="m 319.7475,995.66321 c 0,-0.68095 3.5819,-5.7354 18.85635,-26.60835 5.37054,-7.33898 8.60933,-11.81945 12.78295,-17.68364 1.50591,-2.11589 5.91195,-8.17501 9.7912,-13.46472 3.87924,-5.28971 15.61737,-21.39112 26.08473,-35.78092 10.46735,-14.38979 20.05385,-27.53227 21.30332,-29.2055 1.24948,-1.67323 9.61421,-13.1729 18.5883,-25.55482 8.97409,-12.38192 17.7321,-24.42919 19.46222,-26.77171 1.73014,-2.34253 10.49381,-14.3898 19.47484,-26.77171 8.98102,-12.38192 18.14325,-24.9768 20.36051,-27.98861 6.31487,-8.57785 42.70397,-58.57846 44.66755,-61.37568 6.08938,-8.6746 11.55822,-15.61566 12.15101,-15.42207 0.37956,0.12396 8.40036,13.48404 17.824,29.68907 9.42364,16.20502 18.42824,31.6541 20.01023,34.33127 13.03033,22.05096 15.66347,27.04235 14.81108,28.07589 -0.46506,0.5639 -6.15061,5.15577 -12.63456,10.20416 -6.48395,5.04839 -14.93615,11.64311 -18.78267,14.65493 -3.84652,3.01181 -9.1122,7.11884 -11.70152,9.12672 -2.58931,2.00787 -10.26862,8.03151 -17.06511,13.38585 -6.79649,5.35435 -14.29666,11.2225 -16.66705,13.04035 -2.37039,1.81784 -6.9109,5.37367 -10.09005,7.90185 -3.17914,2.52817 -8.28313,6.51687 -11.34221,8.86378 -6.16299,4.72821 -31.24789,24.31962 -38.85475,30.34573 -2.67717,2.12084 -23.21229,18.18227 -45.6336,35.69207 -22.42131,17.50981 -43.77783,34.20419 -47.45894,37.09862 -6.82566,5.36696 -9.50871,7.46258 -25.55482,19.95987 -5.0197,3.90952 -11.27494,8.82203 -13.90054,10.91669 -4.35802,3.47676 -6.48247,4.57164 -6.48247,3.34088 z" id="path3064" inkscape:connector-curvature="0"/>
      <path style="fill:#f8d830" d="m 344.74597,1023.556 c -0.63658,-0.4029 -0.24064,-0.7124 1.52112,-1.189 1.30993,-0.3545 4.0245,-1.0957 6.03238,-1.6474 2.00788,-0.5517 5.5673,-1.4848 7.90982,-2.0736 4.61459,-1.1599 16.22251,-4.2491 21.59991,-5.7483 1.84055,-0.5132 6.49518,-1.737 10.34362,-2.7197 3.84843,-0.9826 8.63996,-2.2348 10.64784,-2.7825 2.00787,-0.5478 6.6625,-1.7838 10.34361,-2.7468 6.70448,-1.754 15.96582,-4.198 31.33508,-8.26912 4.51772,-1.19669 12.18417,-3.21737 17.03654,-4.49039 4.85237,-1.27301 14.70923,-3.8761 21.90413,-5.78463 7.1949,-1.90854 15.54584,-4.10455 18.55766,-4.88002 9.81495,-2.52713 40.20718,-10.54227 62.0617,-16.36713 19.62034,-5.22939 27.24164,-7.24106 39.2449,-10.35886 6.95724,-1.8071 10.12512,-2.64456 31.33507,-8.28369 9.03545,-2.40227 18.34471,-4.86437 20.68723,-5.47132 2.34253,-0.60695 6.99715,-1.83473 10.34362,-2.72838 9.92226,-2.6497 17.59419,-4.5545 18.34404,-4.5545 0.386,0 1.31467,1.02675 2.06367,2.28168 1.67992,2.8146 6.96983,11.91887 11.4014,19.62244 1.82882,3.17914 5.17339,8.92898 7.43244,12.77741 2.25904,3.84844 6.64468,11.37798 9.74588,16.73232 7.80961,13.48355 11.184,19.27709 17.25826,29.63099 2.88581,4.9191 5.24695,9.0945 5.24695,9.2788 0,0.5815 -391.4775,0.3537 -392.39687,-0.2283 z" id="path3323" inkscape:connector-curvature="0"/>
      <path style="fill:#f8d830" d="m 334.9587,1007.7192 c 0,-0.5414 2.69583,-2.7086 7.42859,-5.9719 1.10129,-0.7594 4.60347,-3.22413 7.78261,-5.47721 3.17914,-2.25309 6.46476,-4.57998 7.30138,-5.17088 0.83661,-0.59089 3.34099,-2.37008 5.56527,-3.95375 2.22429,-1.58367 6.60511,-4.64231 9.73517,-6.79697 3.13006,-2.15468 7.74453,-5.43697 10.25438,-7.29399 2.50984,-1.85703 6.34307,-4.59236 8.51827,-6.07851 4.00976,-2.73957 19.72401,-13.83681 22.51257,-15.89814 0.83662,-0.61844 4.66984,-3.31492 8.51828,-5.99219 9.69757,-6.74639 15.98361,-11.20791 22.8085,-16.18836 3.21005,-2.34253 6.71777,-4.80674 7.79494,-5.47604 1.75126,-1.08813 5.18998,-3.51224 15.26222,-10.75902 1.71292,-1.23242 5.71552,-4.05921 8.89466,-6.28176 3.17914,-2.22255 7.01236,-4.93166 8.51827,-6.02024 1.50591,-1.08857 4.51773,-3.22202 6.69293,-4.74099 2.1752,-1.51898 6.28222,-4.45511 9.12672,-6.52474 2.84449,-2.06964 5.85576,-4.22824 6.69171,-4.7969 2.96803,-2.01901 21.04088,-14.72335 24.03491,-16.89538 1.67324,-1.21385 5.91716,-4.21352 9.43095,-6.66593 3.51378,-2.45241 7.75771,-5.45417 9.43094,-6.67058 4.13703,-3.00753 18.9765,-13.5252 24.94637,-17.68107 2.67717,-1.86369 6.09969,-4.32613 7.6056,-5.47209 1.50591,-1.14596 3.69632,-2.62304 4.86758,-3.2824 1.17127,-0.65936 3.77238,-2.42706 5.78026,-3.92825 2.00788,-1.50117 4.47209,-3.29231 5.47603,-3.9803 1.00394,-0.68799 3.67956,-2.61502 5.94582,-4.28229 7.08189,-5.2101 7.88238,-5.29609 10.04827,-1.07938 2.51277,4.89194 5.73195,10.49484 6.58061,11.45333 0.46784,0.52832 0.85055,1.21771 0.85055,1.53199 0,0.31427 0.68438,1.57861 1.52094,2.80963 0.83649,1.23102 2.15816,3.41654 2.93698,4.85672 1.39401,2.57762 3.81302,6.7815 17.43684,30.30287 5.6882,9.82059 12.94644,22.24634 17.41518,29.81395 2.83318,4.79788 2.99776,5.42748 1.72818,6.60989 -1.01532,0.94557 -14.48776,5.60756 -26.73959,9.25292 -2.00788,0.59742 -4.47209,1.36619 -5.47603,1.70838 -5.74247,1.95734 -16.23942,5.37577 -28.29284,9.21387 -7.52954,2.39759 -16.70189,5.40945 -20.383,6.69302 -3.68111,1.28357 -8.33574,2.79827 -10.34362,3.366 -2.00788,0.56774 -8.44222,2.61009 -14.29853,4.53856 -12.73624,4.19402 -45.26722,14.74628 -65.10394,21.11815 -7.86419,2.5261 -15.66753,5.07908 -17.34076,5.67327 -1.67324,0.5942 -8.38138,2.76841 -14.90698,4.83159 -6.52561,2.06318 -13.23374,4.23498 -14.90698,4.82622 -1.67323,0.59125 -4.41125,1.50332 -6.08448,2.02683 -12.04123,3.76738 -29.10859,9.27745 -31.63929,10.21453 -1.67324,0.61957 -8.65518,2.9088 -15.51543,5.08719 -6.86025,2.17838 -14.11599,4.50453 -16.12387,5.16923 -2.00788,0.66468 -9.40052,3.04002 -16.4281,5.27852 -7.02757,2.2385 -15.23052,4.8559 -18.22878,5.8166 -5.73199,1.8365 -7.63026,2.1266 -7.63026,1.166 z" id="path3321" inkscape:connector-curvature="0"/>
      <path style="fill:#f8d830" d="m 322.18129,993.69012 c 0,-0.66872 4.45456,-7.17252 11.24714,-16.42121 1.84332,-2.50985 4.43304,-6.06927 5.75493,-7.90982 1.32189,-1.84056 5.00186,-6.90589 8.17772,-11.25629 3.17585,-4.3504 8.73492,-11.97137 12.35349,-16.93547 3.61856,-4.96411 7.26371,-9.9596 8.10033,-11.1011 1.81601,-2.47781 12.19798,-16.75574 15.2112,-20.91937 1.17126,-1.61845 3.77237,-5.18912 5.78025,-7.93483 2.00788,-2.74571 4.19829,-5.74742 4.86759,-6.67045 0.66929,-0.92304 2.8597,-3.9319 4.86758,-6.68637 2.00788,-2.75446 4.19829,-5.77745 4.86758,-6.71776 3.35471,-4.71313 16.0551,-22.15273 23.48683,-32.25107 2.8322,-3.84843 5.61216,-7.68166 6.17769,-8.51827 0.56552,-0.83662 2.55037,-3.57463 4.41076,-6.08448 1.8604,-2.50985 4.05414,-5.52167 4.87498,-6.69293 0.82084,-1.17126 2.52349,-3.52964 3.78366,-5.24084 1.99132,-2.70401 4.812,-6.58178 14.76442,-20.29763 1.17126,-1.61417 3.77238,-5.18134 5.78026,-7.92705 2.00788,-2.74572 4.19829,-5.74742 4.86758,-6.67045 0.66929,-0.92304 2.85971,-3.9319 4.86759,-6.68637 2.00787,-2.75446 4.19829,-5.77745 4.86758,-6.71776 2.20139,-3.0928 13.83579,-19.08251 17.04704,-23.42857 1.73086,-2.34253 6.52624,-8.91377 10.6564,-14.60276 4.13015,-5.68898 8.92135,-12.26022 10.64711,-14.60275 1.72575,-2.34252 6.31119,-8.63996 10.18985,-13.9943 10.99369,-15.17636 12.73188,-17.40109 13.41713,-17.17268 0.60575,0.20192 4.95609,7.58355 40.4212,68.58653 4.18287,7.1949 8.52773,14.62882 9.65525,16.51981 1.12751,1.891 2.0452,3.94451 2.03932,4.56336 -0.007,0.68852 -2.19077,2.83442 -5.62814,5.52941 -22.14096,17.35912 -36.74019,28.76431 -40.90743,31.95765 -2.67717,2.05151 -7.45673,5.79831 -10.62123,8.32622 -3.16451,2.52791 -6.49115,5.1438 -7.39252,5.81309 -2.2976,1.70602 -19.38301,15.04328 -24.92199,19.45467 -6.75985,5.38373 -28.39431,22.33124 -30.31203,23.74514 -0.90778,0.66929 -6.52637,5.05012 -12.48576,9.73517 -5.95939,4.68505 -11.73644,9.20278 -12.83788,10.03939 -1.10145,0.83662 -4.83702,3.74572 -8.30127,6.46469 -25.42101,19.95197 -23.20926,18.22039 -47.67312,37.32318 -1.67323,1.30656 -6.05405,4.72873 -9.73516,7.60483 -3.68111,2.8761 -9.29405,7.24962 -12.47319,9.71894 -5.40127,4.19531 -9.07757,7.07485 -33.3942,26.15664 -12.7598,10.01289 -16.49854,12.70998 -16.49854,11.90186 z" id="path3062" inkscape:connector-curvature="0"/>
      <path style="fill:#c85a67" d="m 344.74597,1023.556 c -0.63658,-0.4029 -0.24064,-0.7124 1.52112,-1.189 1.30993,-0.3545 4.0245,-1.0957 6.03238,-1.6474 2.00788,-0.5517 5.5673,-1.4848 7.90982,-2.0736 4.61459,-1.1599 16.22251,-4.2491 21.59991,-5.7483 1.84055,-0.5132 6.49518,-1.737 10.34362,-2.7197 3.84843,-0.9826 8.63996,-2.2348 10.64784,-2.7825 2.00787,-0.5478 6.6625,-1.7838 10.34361,-2.7468 6.70448,-1.754 15.96582,-4.198 31.33508,-8.26912 4.51772,-1.19669 12.18417,-3.21737 17.03654,-4.49039 4.85237,-1.27301 14.70923,-3.8761 21.90413,-5.78463 7.1949,-1.90854 15.54584,-4.10455 18.55766,-4.88002 9.81495,-2.52713 40.20718,-10.54227 62.0617,-16.36713 19.62034,-5.22939 27.24164,-7.24106 39.2449,-10.35886 6.95724,-1.8071 10.12512,-2.64456 31.33507,-8.28369 9.03545,-2.40227 18.34471,-4.86437 20.68723,-5.47132 2.34253,-0.60695 6.99715,-1.83473 10.34362,-2.72838 9.92226,-2.6497 17.59419,-4.5545 18.34404,-4.5545 0.386,0 1.31467,1.02675 2.06367,2.28168 1.67992,2.8146 6.96983,11.91887 11.4014,19.62244 1.82882,3.17914 5.17339,8.92898 7.43244,12.77741 2.25904,3.84844 6.64468,11.37798 9.74588,16.73232 7.80961,13.48355 11.184,19.27709 17.25826,29.63099 2.88581,4.9191 5.24695,9.0945 5.24695,9.2788 0,0.5815 -391.4775,0.3537 -392.39687,-0.2283 z" id="path3251" inkscape:connector-curvature="0"/>
      <path style="fill:#c85a67" d="m 322.18129,993.69012 c 0,-0.66872 4.45456,-7.17252 11.24714,-16.42121 1.84332,-2.50985 4.43304,-6.06927 5.75493,-7.90982 1.32189,-1.84056 5.00186,-6.90589 8.17772,-11.25629 3.17585,-4.3504 8.73492,-11.97137 12.35349,-16.93547 3.61856,-4.96411 7.26371,-9.9596 8.10033,-11.1011 1.81601,-2.47781 12.19798,-16.75574 15.2112,-20.91937 1.17126,-1.61845 3.77237,-5.18912 5.78025,-7.93483 2.00788,-2.74571 4.19829,-5.74742 4.86759,-6.67045 0.66929,-0.92304 2.8597,-3.9319 4.86758,-6.68637 2.00788,-2.75446 4.19829,-5.77745 4.86758,-6.71776 3.35471,-4.71313 16.0551,-22.15273 23.48683,-32.25107 2.8322,-3.84843 5.61216,-7.68166 6.17769,-8.51827 0.56552,-0.83662 2.55037,-3.57463 4.41076,-6.08448 1.8604,-2.50985 4.05414,-5.52167 4.87498,-6.69293 0.82084,-1.17126 2.52349,-3.52964 3.78366,-5.24084 1.99132,-2.70401 4.812,-6.58178 14.76442,-20.29763 1.17126,-1.61417 3.77238,-5.18134 5.78026,-7.92705 2.00788,-2.74572 4.19829,-5.74742 4.86758,-6.67045 0.66929,-0.92304 2.85971,-3.9319 4.86759,-6.68637 2.00787,-2.75446 4.19829,-5.77745 4.86758,-6.71776 2.20139,-3.0928 13.83579,-19.08251 17.04704,-23.42857 1.73086,-2.34253 6.52624,-8.91377 10.6564,-14.60276 4.13015,-5.68898 8.92135,-12.26022 10.64711,-14.60275 1.72575,-2.34252 6.31119,-8.63996 10.18985,-13.9943 10.99369,-15.17636 12.73188,-17.40109 13.41713,-17.17268 0.60575,0.20192 4.95609,7.58355 40.4212,68.58653 4.18287,7.1949 8.52773,14.62882 9.65525,16.51981 1.12751,1.891 2.0452,3.94451 2.03932,4.56336 -0.007,0.68852 -2.19077,2.83442 -5.62814,5.52941 -22.14096,17.35912 -36.74019,28.76431 -40.90743,31.95765 -2.67717,2.05151 -7.45673,5.79831 -10.62123,8.32622 -3.16451,2.52791 -6.49115,5.1438 -7.39252,5.81309 -2.2976,1.70602 -19.38301,15.04328 -24.92199,19.45467 -6.75985,5.38373 -28.39431,22.33124 -30.31203,23.74514 -0.90778,0.66929 -6.52637,5.05012 -12.48576,9.73517 -5.95939,4.68505 -11.73644,9.20278 -12.83788,10.03939 -1.10145,0.83662 -4.83702,3.74572 -8.30127,6.46469 -25.42101,19.95197 -23.20926,18.22039 -47.67312,37.32318 -1.67323,1.30656 -6.05405,4.72873 -9.73516,7.60483 -3.68111,2.8761 -9.29405,7.24962 -12.47319,9.71894 -5.40127,4.19531 -9.07757,7.07485 -33.3942,26.15664 -12.7598,10.01289 -16.49854,12.70998 -16.49854,11.90186 z" id="path3060" inkscape:connector-curvature="0"/>
      <path style="fill:#ca3044" d="m 735.93525,1022.7504 c 0.007,-1.107 0.12218,-1.1944 0.59914,-0.4563 0.76233,1.1796 0.76233,1.8253 0,1.8253 -0.33464,0 -0.60425,-0.616 -0.59914,-1.369 z" id="path3159" inkscape:connector-curvature="0"/>
      <path style="fill:#ca3044" d="m 349.92498,1022.9695 c -1.18073,-0.4613 1.40478,-1.2524 17.88992,-5.4738 3.84843,-0.9855 13.15768,-3.4404 20.68723,-5.4553 7.52954,-2.0149 22.72553,-6.0337 33.76886,-8.9306 11.04333,-2.8969 21.44779,-5.63187 23.12103,-6.07773 1.67323,-0.44586 10.43488,-2.76286 19.47033,-5.1489 21.53643,-5.68724 23.53301,-6.21393 49.58852,-13.0812 12.21459,-3.21932 29.32719,-7.74212 38.028,-10.05067 8.7008,-2.30855 19.51597,-5.16182 24.03369,-6.3406 4.51773,-1.17877 12.32108,-3.22367 17.34077,-4.54421 5.0197,-1.32054 16.51937,-4.33993 25.55482,-6.70976 9.03545,-2.36982 22.04103,-5.81107 28.90128,-7.64721 29.70163,-7.94963 34.34939,-9.08962 35.40577,-8.68425 0.49571,0.19023 2.65752,3.31383 4.804,6.94134 2.14649,3.62751 4.72412,7.98603 5.72806,9.6856 1.00393,1.69956 3.43645,5.94474 5.40563,9.43372 1.96918,3.48897 4.34955,7.5757 5.28966,9.08161 0.94018,1.50591 2.86184,4.79152 4.27034,7.30137 1.40855,2.50985 4.26138,7.43828 6.3396,10.95207 2.07827,3.51378 5.36182,9.12672 7.29693,12.47322 1.93505,3.3464 4.89618,8.4118 6.58031,11.2562 4.60844,7.7837 5.97514,10.4591 5.55689,10.8774 -0.54383,0.5438 -383.67156,0.6849 -385.06164,0.1417 z" id="path3157" inkscape:connector-curvature="0"/>
      <path style="fill:#ca3044" d="m 325.24147,990.19843 c 0.01,-0.25098 1.93715,-3.05745 4.28288,-6.23659 2.34573,-3.17914 5.76055,-7.83377 7.5885,-10.34362 4.29728,-5.90034 16.12153,-22.10915 18.42018,-25.25059 6.28212,-8.58543 18.20881,-24.99024 18.95998,-26.07891 0.49382,-0.71568 2.70457,-3.76546 4.91279,-6.77728 4.43318,-6.0465 14.39704,-19.74092 18.76418,-25.78967 1.54294,-2.13705 5.54335,-7.63096 8.88981,-12.20868 3.34647,-4.57772 7.31659,-10.04476 8.8225,-12.14896 1.50591,-2.10421 6.07661,-8.38378 10.1571,-13.95459 4.0805,-5.57082 8.46132,-11.57296 9.73517,-13.33808 1.27385,-1.76514 3.41129,-4.70375 4.74987,-6.53026 1.33859,-1.8265 3.28058,-4.48933 4.31555,-5.91739 1.03497,-1.42806 4.73129,-6.52525 8.21405,-11.3271 3.48276,-4.80184 8.2489,-11.38919 10.59143,-14.63856 2.34252,-3.24936 6.72335,-9.27742 9.73517,-13.39567 4.94769,-6.76532 14.4368,-19.78469 20.21132,-27.73063 1.21599,-1.67323 3.62537,-4.95885 5.35419,-7.30138 1.72881,-2.34252 6.81247,-9.32446 11.297,-15.51542 4.48454,-6.19096 9.38782,-12.92611 10.89619,-14.967 1.50837,-2.04089 4.65909,-6.36274 7.00162,-9.60411 2.34252,-3.24137 5.35434,-7.35674 6.69293,-9.14526 1.33858,-1.78852 3.64582,-4.94024 5.12719,-7.00381 2.57062,-3.58091 2.74079,-3.70215 3.73301,-2.65946 0.57179,0.60088 1.72427,2.32461 2.56106,3.83052 3.45464,6.21699 6.86088,12.05073 8.76417,15.01009 1.11261,1.72994 2.02292,3.29467 2.02292,3.47718 0,0.18251 1.51784,2.83498 3.37298,5.89438 3.73817,6.1648 11.91819,20.20559 13.9763,23.98997 1.84754,3.3972 7.51745,13.18646 12.28923,21.21775 7.55776,12.72031 8.08526,13.64781 8.08526,14.21617 0,0.31294 -2.63269,2.59898 -5.85043,5.0801 -3.21773,2.48112 -8.80777,6.83844 -12.42229,9.68294 -8.89562,7.00051 -23.40577,18.35969 -29.14605,22.8168 -2.58594,2.00788 -6.97247,5.4304 -9.74786,7.6056 -2.77538,2.1752 -5.94016,4.63941 -7.03283,5.47603 -1.09268,0.83662 -7.01388,5.47314 -13.15821,10.30339 -10.63451,8.36011 -22.71218,17.81184 -30.37356,23.7697 -1.93649,1.50591 -10.16139,7.94025 -18.27755,14.29853 -8.11616,6.35828 -16.17159,12.65572 -17.90095,13.9943 -1.72936,1.33859 -8.18401,6.38098 -14.34366,11.20532 -6.15966,4.82434 -12.97909,10.15263 -15.15429,11.84065 -3.92288,3.04428 -15.45353,12.08943 -23.19368,18.19416 -2.21517,1.74711 -6.16186,4.81939 -8.77043,6.82727 -2.60858,2.00787 -7.52855,5.8411 -10.93329,8.51827 -3.40474,2.67717 -9.00097,7.05799 -12.43608,9.73517 -3.43511,2.67717 -10.2559,8.02644 -15.15732,11.88726 -4.90142,3.86082 -11.10208,8.68481 -13.77925,10.71997 -2.67717,2.03517 -6.23157,4.8315 -7.89867,6.21407 -2.95436,2.45013 -3.98466,2.98704 -3.94813,2.05743 z" id="path3058" inkscape:connector-curvature="0"/>
      <path style="fill:#d8273b" d="m 358.07973,1021.7269 c 0,-0.6322 4.35697,-2.1289 8.82249,-3.0306 5.56644,-1.1241 12.74471,-2.9584 15.43982,-3.9454 1.46432,-0.5364 3.30077,-0.9751 4.081,-0.9751 0.78023,0 4.37368,-0.9581 7.98544,-2.1292 3.61176,-1.171 7.00076,-2.1294 7.53112,-2.1296 0.53037,-2e-4 2.69461,-0.5684 4.80943,-1.2626 2.11482,-0.6943 6.06171,-1.7587 8.77087,-2.3654 2.70916,-0.6066 6.97926,-1.6883 9.48911,-2.4036 2.50985,-0.7153 6.17945,-1.5802 8.15467,-1.922 1.97522,-0.3418 4.13136,-0.9105 4.79142,-1.2637 1.2063,-0.64563 12.37004,-3.71537 17.47631,-4.80557 1.50591,-0.32152 3.97012,-0.98302 5.47603,-1.47 2.99616,-0.96891 16.49983,-4.43365 20.38301,-5.22984 1.33859,-0.27445 3.63187,-0.92643 5.0962,-1.44883 1.46432,-0.5224 3.56823,-0.94983 4.67536,-0.94983 1.10713,0 3.60537,-0.64825 5.55165,-1.44055 4.40022,-1.79129 12.4391,-4.03548 14.45539,-4.03548 0.83128,0 2.82212,-0.50359 4.42408,-1.11908 1.60195,-0.61549 5.65066,-1.73397 8.99713,-2.48551 3.34646,-0.75154 7.59039,-1.86371 9.43094,-2.47151 1.84056,-0.60779 4.85238,-1.4365 6.69293,-1.84158 1.84056,-0.40508 4.44167,-1.09941 5.78026,-1.54296 1.33858,-0.44355 4.3504,-1.24441 6.69293,-1.7797 4.93824,-1.12843 6.93792,-1.64541 12.7774,-3.30339 4.90757,-1.39339 7.77702,-2.10409 12.47319,-3.08933 1.84055,-0.38614 4.85237,-1.20119 6.69293,-1.81122 1.84055,-0.61003 6.22138,-1.85274 9.73516,-2.7616 3.51379,-0.90885 9.67433,-2.55436 13.69009,-3.6567 4.01575,-1.10234 8.39658,-2.19158 9.73516,-2.42054 1.33859,-0.22895 4.48731,-1.05385 6.99716,-1.8331 2.50984,-0.77925 5.93236,-1.75131 7.6056,-2.16014 6.12074,-1.49551 7.9734,-1.97471 11.09651,-2.87015 2.4675,-0.70748 3.38211,-0.75144 4.05287,-0.1948 0.59117,0.49066 0.99134,0.51633 1.26046,0.0809 0.21685,-0.3509 0.0359,-0.66093 -0.40219,-0.68896 -1.27731,-0.0817 7.56612,-2.90517 9.24087,-2.95032 0.83546,-0.0225 3.57348,-0.68856 6.08448,-1.48008 2.511,-0.79152 6.75584,-1.92003 9.43301,-2.50783 2.67717,-0.58778 5.67615,-1.42594 6.66446,-1.86258 1.08395,-0.47891 2.17824,-0.58975 2.75821,-0.27938 0.80674,0.43176 3.74561,4.8752 6.45101,9.75355 0.36434,0.65702 1.08359,1.67561 1.59827,2.26354 0.51469,0.58794 1.51467,2.30109 2.22224,3.807 0.70756,1.5059 2.7915,5.20223 4.63089,8.21404 1.83947,3.01182 4.16763,7.11885 5.17376,9.12672 1.00619,2.00788 2.64206,4.8828 3.63542,6.38871 1.74417,2.6443 2.92298,4.69589 5.20758,9.06353 0.59452,1.13652 1.58848,2.57397 2.20891,3.19435 0.62037,0.62039 1.12794,1.51767 1.12794,1.99396 0,0.4763 0.63516,1.63996 1.41154,2.5859 1.77697,2.16523 4.67294,7.39752 4.67294,8.44276 0,0.4342 0.64776,1.5633 1.43947,2.5093 0.79171,0.9459 2.15555,3.138 3.03068,4.8712 0.87513,1.7332 1.89811,3.341 2.27328,3.5728 0.37517,0.2319 1.06898,1.278 1.54181,2.3248 0.47276,1.0467 1.09283,2.3139 1.37789,2.8158 0.8929,1.5726 1.78056,4.7816 1.42188,5.1403 -0.59415,0.5941 -374.32847,0.3631 -374.32847,-0.2314 z" id="path3098" inkscape:connector-curvature="0"/>
      <path style="fill:#d8273b" d="m 330.09112,985.26873 c 0,-0.34464 0.27698,-0.79781 0.61552,-1.00703 0.33853,-0.20923 1.59616,-1.93665 2.79473,-3.83871 1.19856,-1.90207 2.83563,-4.14281 3.63792,-4.97942 2.55151,-2.66068 4.51234,-5.32233 4.51234,-6.12511 0,-0.4277 1.32729,-2.30479 2.94953,-4.1713 1.62225,-1.86652 3.37392,-4.21572 3.89262,-5.22045 0.5187,-1.00473 1.51872,-2.34772 2.22228,-2.98443 0.70355,-0.63671 1.27919,-1.38665 1.27919,-1.66653 0,-0.72366 4.23274,-6.2032 5.24212,-6.78624 0.46329,-0.26761 0.84236,-0.83958 0.84236,-1.27103 0,-0.43146 0.69252,-1.71841 1.53894,-2.85989 5.7086,-7.69865 8.69798,-11.77627 10.02157,-13.66976 0.83662,-1.19684 2.61633,-3.54807 3.95491,-5.22495 4.3697,-5.47403 5.78369,-7.48773 6.67399,-9.50466 0.48217,-1.0923 1.29973,-2.14835 1.81681,-2.34678 0.51708,-0.19842 0.94015,-0.62764 0.94015,-0.95383 0,-0.32618 0.9583,-1.76255 2.12956,-3.19192 1.17127,-1.42937 2.12957,-2.80688 2.12957,-3.06113 0,-0.25425 0.71014,-1.32126 1.57808,-2.37112 3.7013,-4.47709 11.71624,-15.56892 12.08137,-16.71933 0.21841,-0.68813 0.9307,-1.42051 1.58287,-1.62751 0.65218,-0.20698 1.18578,-0.76859 1.18578,-1.24801 0,-0.47942 0.52688,-1.39855 1.17084,-2.04251 0.64396,-0.64396 1.5062,-1.80762 1.91609,-2.58591 0.93671,-1.77857 4.1748,-6.1247 8.36756,-11.23082 1.78225,-2.1705 3.61492,-4.84259 4.07261,-5.93798 0.45768,-1.0954 2.35355,-3.53753 4.21304,-5.42696 1.85948,-1.88944 3.38507,-3.78347 3.39019,-4.20895 0.005,-0.42549 0.97244,-2.14262 2.14961,-3.81585 1.17718,-1.67324 2.85218,-4.069 3.72224,-5.32392 0.87006,-1.25493 1.83359,-2.28168 2.14117,-2.28168 0.30759,0 0.8476,-0.82719 1.20004,-1.83819 0.35244,-1.01101 1.1596,-2.11584 1.79369,-2.4552 0.6341,-0.33936 1.1529,-0.98482 1.1529,-1.43435 0,-0.69382 3.51646,-5.68146 8.46993,-12.01349 0.69589,-0.88954 1.26524,-1.88518 1.26524,-2.21252 0,-0.32734 1.41403,-2.06375 3.14229,-3.85868 3.11938,-3.2397 4.40632,-5.08463 6.2084,-8.90021 0.51589,-1.0923 1.36104,-2.14835 1.87813,-2.34678 0.51708,-0.19842 0.94014,-0.62764 0.94014,-0.95383 0,-0.32618 0.95831,-1.76255 2.12957,-3.19192 1.17126,-1.42937 2.12957,-2.80688 2.12957,-3.06113 0,-0.25425 0.71014,-1.32126 1.57808,-2.37112 3.7013,-4.47709 11.71624,-15.56892 12.08137,-16.71933 0.2184,-0.68814 0.9307,-1.42051 1.58287,-1.62751 0.65218,-0.20698 1.18577,-0.76859 1.18577,-1.24801 0,-0.47942 0.52688,-1.39855 1.17085,-2.04252 0.64395,-0.64395 1.5062,-1.80761 1.91609,-2.5859 0.93671,-1.77857 4.1748,-6.1247 8.36756,-11.23082 1.78225,-2.1705 3.62736,-4.87236 4.10025,-6.00416 0.4729,-1.1318 2.23187,-3.42987 3.90882,-5.10682 1.67695,-1.67696 3.04901,-3.34245 3.04901,-3.7011 0,-1.57465 7.71025,-11.57482 8.92433,-11.57482 0.4524,0 0.81084,-0.65174 0.81084,-1.47432 0,-0.82686 0.8016,-2.27591 1.82534,-3.29965 1.00394,-1.00394 1.82535,-2.14926 1.82535,-2.54515 0,-0.80101 3.32907,-5.32552 4.81643,-6.54596 0.52514,-0.4309 1.36753,-1.55198 1.87198,-2.49129 1.5194,-2.82919 4.45183,-6.83798 6.46381,-8.83641 1.04276,-1.03573 2.36085,-2.88111 2.92908,-4.10082 0.56823,-1.21971 1.97392,-3.31675 3.12376,-4.66008 1.14984,-1.34333 2.09062,-2.6203 2.09062,-2.83771 0,-0.21741 0.87295,-1.48157 1.93989,-2.80923 2.28779,-2.84685 2.35546,-2.80653 5.70246,3.39797 1.26368,2.34252 2.94911,5.12354 3.7454,6.18003 0.79629,1.05649 1.60362,2.88108 1.79407,4.05465 0.21499,1.32485 0.75027,2.23942 1.41197,2.41246 0.60074,0.15709 1.54774,1.57362 2.17053,3.24671 0.60765,1.63242 1.98464,3.96452 3.05997,5.18246 1.07532,1.21793 2.15536,2.84526 2.40008,3.61631 0.24472,0.77104 1.36364,2.70894 2.48649,4.30642 1.12285,1.59749 3.10658,4.90309 4.40828,7.34577 1.3017,2.44268 3.22266,5.79089 4.26879,7.44047 1.04612,1.64958 1.90678,3.28788 1.91256,3.64067 0.006,0.35279 1.78644,3.51636 3.95702,7.03014 2.17058,3.51379 4.20247,6.97817 4.51532,7.69861 0.31285,0.72045 0.88216,1.50357 1.26515,1.74027 0.38298,0.23669 1.21234,1.63415 1.84302,3.10547 0.63068,1.47132 1.70322,3.27249 2.38344,4.00262 0.68021,0.73011 1.23674,1.62435 1.23674,1.98719 0,0.36284 0.95831,2.11482 2.12957,3.89329 2.11026,3.20427 2.66032,4.95271 1.55813,4.95271 -0.3143,0 -1.78987,1.02676 -3.27905,2.28168 -1.48918,1.25493 -4.69787,3.65069 -7.13041,5.32392 -2.43254,1.67324 -5.26935,3.88508 -6.30401,4.91522 -2.12678,2.11747 -9.85734,8.30502 -13.24362,10.60021 -1.23433,0.83661 -3.56356,2.67057 -5.17608,4.07547 -5.80136,5.05441 -22.3333,17.62823 -23.78192,18.08801 -0.64548,0.20487 -1.47635,1.03696 -1.84638,1.84909 -0.45098,0.98978 -1.36776,1.60697 -2.78073,1.87205 -1.49933,0.28128 -2.306,0.86169 -2.7939,2.01028 -0.39023,0.91866 -3.08457,3.31983 -6.24978,5.56974 -3.0601,2.1752 -6.18226,4.54451 -6.93814,5.26513 -1.29967,1.23906 -5.20342,4.37306 -11.03409,8.85838 -1.43021,1.1002 -3.42471,2.75332 -4.43223,3.67359 -1.00752,0.92028 -2.21952,1.67324 -2.69332,1.67324 -0.47381,0 -1.08042,0.35249 -1.34803,0.78333 -0.63657,1.02482 -6.35214,5.69504 -7.32736,5.98723 -0.41597,0.12462 -1.92188,1.25213 -3.34646,2.50557 -5.03726,4.4321 -11.72625,9.71667 -13.38405,10.57395 -0.92361,0.47762 -1.67929,1.07613 -1.67929,1.33003 0,0.2539 -0.88986,0.97842 -1.97746,1.61003 -1.0876,0.63161 -2.19749,1.51398 -2.46642,1.96081 -0.26893,0.44683 -1.56949,1.36366 -2.89013,2.03741 -1.32064,0.67374 -2.40116,1.43139 -2.40116,1.68367 0,0.25228 -1.64281,1.65501 -3.65069,3.11719 -2.00788,1.46217 -3.65069,2.87067 -3.65069,3.13001 0,0.25932 -1.02675,1.09737 -2.28168,1.86232 -1.25492,0.76495 -2.62478,1.86154 -3.04412,2.43685 -0.41935,0.57532 -1.68533,1.35061 -2.81329,1.72287 -1.19093,0.39305 -3.11873,1.94329 -4.5977,3.69726 -1.77139,2.10077 -2.99896,3.02041 -4.03175,3.02041 -0.81669,0 -1.4849,0.22783 -1.4849,0.50628 0,0.746 -10.96906,9.83734 -11.86914,9.83734 -0.42257,0 -1.21682,0.6845 -1.76498,1.52112 -0.54818,0.83661 -1.34272,1.52112 -1.76564,1.52112 -0.42293,0 -2.05393,1.21382 -3.62446,2.69739 -1.57053,1.48356 -4.36896,3.70197 -6.21874,4.92978 -1.84979,1.22782 -3.56654,2.54745 -3.81501,2.93252 -0.24846,0.38507 -1.55154,1.44526 -2.89572,2.35598 -1.34418,0.91072 -3.626,2.75809 -5.07072,4.10526 -1.44471,1.34717 -2.91286,2.4494 -3.26254,2.4494 -0.55652,0 -2.4068,1.45067 -6.86777,5.38451 -0.66929,0.5902 -2.3121,1.78283 -3.65069,2.65028 -1.33858,0.86745 -3.8028,2.83583 -5.47603,4.37417 -1.72756,1.58829 -3.63384,2.79812 -4.41125,2.79962 -0.84449,0.002 -1.369,0.37321 -1.369,0.96988 0,0.95898 -2.26181,3.23273 -3.25447,3.27164 -0.28404,0.0111 -1.30596,0.77319 -2.27092,1.69347 -3.28414,3.13207 -4.88954,4.441 -7.3584,5.99952 -1.35643,0.85628 -3.59866,2.58685 -4.98273,3.84571 -1.38407,1.25886 -2.96625,2.53626 -3.51594,2.83867 -0.5497,0.30242 -2.05561,1.4288 -3.34647,2.50307 -4.16407,3.46543 -7.28376,5.91501 -9.91075,7.78194 -1.41265,1.00394 -3.36899,2.46574 -4.3474,3.24844 -0.97842,0.78271 -1.77894,1.14112 -1.77894,0.79647 z" id="path3096" inkscape:connector-curvature="0"/>
      <path style="fill:#d8273b" d="m 344.69387,972.40133 c 0,-0.33465 -0.28996,-0.60845 -0.64436,-0.60845 -0.35439,0 -0.47514,0.2738 -0.26831,0.60845 0.20682,0.33464 0.49678,0.60845 0.64436,0.60845 0.14757,0 0.26831,-0.27381 0.26831,-0.60845 z" id="path3094" inkscape:connector-curvature="0"/>
      <path style="fill:#d8273b" d="m 463.34123,875.04965 c 0,-0.33465 -0.2738,-0.60845 -0.60844,-0.60845 -0.33465,0 -0.60845,0.2738 -0.60845,0.60845 0,0.33464 0.2738,0.60844 0.60845,0.60844 0.33464,0 0.60844,-0.2738 0.60844,-0.60844 z" id="path3092" inkscape:connector-curvature="0"/>
      <path style="fill:#d8273b" d="m 544.26482,816.37032 c 0,-0.14757 -0.2738,-0.43753 -0.60845,-0.64436 -0.33464,-0.20682 -0.60845,-0.0861 -0.60845,0.26832 0,0.35439 0.27381,0.64436 0.60845,0.64436 0.33465,0 0.60845,-0.12074 0.60845,-0.26832 z" id="path3056" inkscape:connector-curvature="0"/>
    </g>
    <text xml:space="preserve" style="font-size:41.35306931px;font-style:normal;font-weight:normal;line-height:125%;letter-spacing:0px;word-spacing:0px;fill:#000000;fill-opacity:1;stroke:none;font-family:Sans" x="-2.7066698" y="726.37421" id="text3902" sodipodi:linespacing="125%"><tspan sodipodi:role="line" id="tspan3904" x="-2.7066698" y="726.37421" style="font-size:47.55603027px;font-weight:normal;line-height:125%;letter-spacing:8.27061367px;-inkscape-font-specification:Sans" dx="0">USERGROUP KARLSRUHE</tspan></text>
    <path style="fill:#000000" d="m 1.1754132,683.89796 c 0,-0.20584 2.0210438,-10.7582 4.4911984,-23.44972 2.4701628,-12.6915 6.1179664,-31.45437 8.1062404,-41.69524 1.988273,-10.24086 4.131548,-21.26572 4.762827,-24.49967 0.63128,-3.23397 2.028504,-10.4159 3.104927,-15.95981 13.463644,-69.34157 17.362775,-89.27836 17.505839,-89.50986 0.204663,-0.33115 81.207565,-0.28048 87.607345,0.0549 6.29619,0.32984 11.07433,0.88292 15.6798,1.81496 19.05247,3.85577 32.35591,13.30015 39.34546,27.93212 2.37135,4.96423 3.82798,10.13834 4.78825,17.00852 0.42941,3.0721 0.42732,12.73762 -0.004,16.51978 -2.62696,23.05826 -10.57957,40.25731 -25.50501,55.1593 -7.08203,7.07092 -13.60258,11.8438 -21.42508,15.68264 -5.27591,2.58912 -9.18393,4.04209 -14.5598,5.41327 -12.20518,3.11301 -22.07065,3.82377 -53.074327,3.82377 -12.001544,0 -18.772876,0.0991 -18.882366,0.27622 -0.157783,0.2553 -2.602868,12.66007 -7.865255,39.90327 -1.16013,6.00591 -2.173529,11.14036 -2.252003,11.40987 -0.134246,0.46096 -1.376129,0.48998 -20.983555,0.48998 -17.205495,0 -20.8408636,-0.0654 -20.8408636,-0.3742 z M 98.754156,601.28043 c 13.733294,-1.90492 22.297834,-5.50865 28.989574,-12.19805 6.88249,-6.88009 11.64043,-17.27712 14.0988,-30.80861 2.65137,-14.59387 1.24044,-24.36768 -4.38916,-30.40461 -4.23026,-4.53636 -9.83872,-6.85793 -20.35583,-8.4261 -2.37682,-0.3544 -6.67596,-0.46382 -22.328207,-0.56827 l -19.384623,-0.12936 -0.28295,0.65443 c -0.155624,0.35991 -2.36894,11.42726 -4.918479,24.5941 -2.549537,13.16684 -6.091743,31.40564 -7.871567,40.53066 -1.779826,9.12505 -3.159751,16.78982 -3.066498,17.03285 0.152701,0.39793 1.956954,0.42927 18.159268,0.31543 14.729051,-0.10349 18.598715,-0.21089 21.349672,-0.59247 z m 236.736964,82.58605 c 0,-0.49024 2.9526,-15.74462 19.45888,-100.53302 2.2185,-11.39586 5.68516,-29.22462 7.70368,-39.61949 9.21092,-47.43394 10.6553,-54.72966 10.87964,-54.95401 0.36922,-0.3692 89.18213,-0.0646 92.57614,0.3174 8.57297,0.96518 13.48698,1.96216 19.51414,3.95912 11.95775,3.96195 21.0002,10.52912 27.15685,19.72296 8.52712,12.73371 10.63211,30.00313 6.21103,50.95535 -3.89988,18.48207 -12.94079,34.16361 -26.96888,46.77775 -6.43166,5.7834 -11.46771,9.24192 -18.35324,12.60419 -5.32985,2.60262 -9.19571,4.00229 -14.9922,5.42813 -12.23182,3.0088 -21.56568,3.6636 -52.26044,3.66631 -12.80126,0.002 -18.87111,0.0953 -18.99438,0.29482 -0.17713,0.28655 -1.02172,4.54544 -7.02158,35.40638 -1.61677,8.31589 -3.00961,15.4033 -3.09523,15.7498 l -0.15565,0.62999 -20.82939,0 c -18.00167,0 -20.82937,-0.0551 -20.82937,-0.40568 z m 97.41394,-82.57706 c 19.50568,-2.5841 30.2659,-9.47113 37.24105,-23.83588 3.95195,-8.13876 6.80129,-19.91557 7.21472,-29.81962 0.26336,-6.30984 -0.53291,-11.01121 -2.59318,-15.31041 -3.441,-7.18032 -10.22674,-10.92385 -23.34574,-12.87931 -2.38689,-0.35578 -6.66095,-0.46481 -22.31912,-0.56932 -18.58261,-0.12409 -19.37799,-0.10848 -19.64222,0.38522 -0.15146,0.28299 -1.74236,8.07434 -3.53533,17.31413 -1.79301,9.23978 -3.9355,20.26455 -4.76116,24.4995 -6.4311,32.98626 -7.76271,40.06794 -7.60939,40.46747 0.15952,0.41572 1.72946,0.44462 18.02498,0.332 14.42821,-0.0998 18.51647,-0.21166 21.32539,-0.58378 z m -253.45524,30.69521 c -0.0653,-0.11648 1.00105,-5.94471 2.36945,-12.95163 1.3684,-7.00692 4.56951,-23.44969 7.11358,-36.53952 2.54408,-13.08985 7.27199,-37.40753 10.50641,-54.03932 3.23448,-16.63179 8.52218,-43.84744 11.75048,-60.47921 3.22829,-16.6318 5.93351,-30.52312 6.01156,-30.86962 l 0.14201,-0.63 20.74554,0 20.74557,0 -0.18707,1.04999 c -0.1029,0.5775 -2.33488,12.10769 -4.95992,25.62267 -2.62505,13.51496 -4.70081,24.76032 -4.61281,24.98966 0.13957,0.36373 2.62165,0.41751 19.41856,0.42077 19.8354,0.004 29.04138,0.25767 35.62728,0.98235 20.65906,2.2732 32.99574,8.76573 38.24527,20.12765 2.1634,4.68241 3.19343,10.1025 3.19758,16.82577 0.004,7.37363 0.57238,4.17142 -14.32373,80.77895 -1.09298,5.62094 -2.63307,13.49583 -3.42246,17.49978 l -1.43522,7.27991 -20.83925,0.0718 c -11.4616,0.0395 -20.94262,-0.0314 -21.06894,-0.15786 -0.12631,-0.12633 1.09056,-7.02554 2.7042,-15.3316 1.61364,-8.30607 5.40006,-27.76478 8.41431,-43.24159 3.01421,-15.4768 5.66393,-29.33662 5.88821,-30.7996 0.53386,-3.48216 0.52816,-9.68833 -0.011,-11.9752 -1.49794,-6.35336 -5.67085,-9.18429 -15.81766,-10.73079 -1.35573,-0.20662 -9.20312,-0.3676 -22.1424,-0.4542 -17.66394,-0.11823 -20.09285,-0.0837 -20.46729,0.29071 -0.4356,0.43564 -0.67151,1.5948 -7.78826,38.26929 -9.10459,46.91819 -13.4913,69.47757 -13.93814,71.67909 l -0.48307,2.37996 -20.6321,0.0718 c -11.34767,0.0395 -20.68547,-0.0235 -20.75067,-0.13998 z" id="path3520" inkscape:connector-curvature="0"/>
  </g>
</svg>